<svg xmlns="http://www.w3.org/2000/svg" viewBox="0 0 48 48" width="48" height="48">
  <path fill="#009EE3" d="M48,24c0,13.255-10.745,24-24,24S0,37.255,0,24S10.745,0,24,0S48,10.745,48,24z"/>
  <path fill="#FFFFFF" d="M26.621,13.104c-0.913-0.955-2.191-1.521-3.621-1.521c-2.762,0-5,2.238-5,5c0,2.762,2.238,5,5,5 c1.43,0,2.708-0.566,3.621-1.521c0.913,0.955,2.191,1.521,3.621,1.521c2.762,0,5-2.238,5-5c0-2.762-2.238-5-5-5 C28.812,11.583,27.534,12.149,26.621,13.104z"/>
  <path fill="#009EE3" d="M26.621,13.104c-0.913,0.955-1.479,2.233-1.479,3.663c0,1.43,0.566,2.708,1.479,3.663 c0.913-0.955,1.479-2.233,1.479-3.663C28.1,15.337,27.534,14.059,26.621,13.104z"/>
  <path fill="#FFFFFF" d="M16.5,26.417c-0.913-0.955-2.191-1.521-3.621-1.521c-2.762,0-5,2.238-5,5c0,2.762,2.238,5,5,5 c1.43,0,2.708-0.566,3.621-1.521c0.913,0.955,2.191,1.521,3.621,1.521c2.762,0,5-2.238,5-5c0-2.762-2.238-5-5-5 C18.691,24.896,17.413,25.462,16.5,26.417z"/>
  <path fill="#009EE3" d="M16.5,26.417c-0.913,0.955-1.479,2.233-1.479,3.663c0,1.43,0.566,2.708,1.479,3.663 c0.913-0.955,1.479-2.233,1.479-3.663C17.979,28.65,17.413,27.372,16.5,26.417z"/>
  <path fill="#FFFFFF" d="M36.742,26.417c-0.913-0.955-2.191-1.521-3.621-1.521c-2.762,0-5,2.238-5,5c0,2.762,2.238,5,5,5 c1.43,0,2.708-0.566,3.621-1.521c0.913,0.955,2.191,1.521,3.621,1.521c2.762,0,5-2.238,5-5c0-2.762-2.238-5-5-5 C38.933,24.896,37.655,25.462,36.742,26.417z"/>
  <path fill="#009EE3" d="M36.742,26.417c-0.913,0.955-1.479,2.233-1.479,3.663c0,1.43,0.566,2.708,1.479,3.663 c0.913-0.955,1.479-2.233,1.479-3.663C38.221,28.65,37.655,27.372,36.742,26.417z"/>
</svg>
